<?xml version="1.0" encoding="UTF-8" standalone="no"?>
<svg
   xmlns:dc="http://purl.org/dc/elements/1.1/"
   xmlns:cc="http://creativecommons.org/ns#"
   xmlns:rdf="http://www.w3.org/1999/02/22-rdf-syntax-ns#"
   xmlns:svg="http://www.w3.org/2000/svg"
   xmlns="http://www.w3.org/2000/svg"
   xmlns:sodipodi="http://sodipodi.sourceforge.net/DTD/sodipodi-0.dtd"
   xmlns:inkscape="http://www.inkscape.org/namespaces/inkscape"
   width="148.76909mm"
   height="148.45967mm"
   viewBox="0 0 148.76909 148.45967"
   version="1.1"
   id="svg28093"
   inkscape:version="1.0.1 (3bc2e813f5, 2020-09-07)"
   sodipodi:docname="Nepalese Election Symbol Hammer and sickle.svg">
  <defs
     id="defs28087" />
  <sodipodi:namedview
     id="base"
     pagecolor="#ffffff"
     bordercolor="#666666"
     borderopacity="1.0"
     inkscape:pageopacity="0.0"
     inkscape:pageshadow="2"
     inkscape:zoom="0.49497475"
     inkscape:cx="352.44174"
     inkscape:cy="308.45177"
     inkscape:document-units="mm"
     inkscape:current-layer="layer1"
     inkscape:document-rotation="0"
     showgrid="false"
     fit-margin-top="0.1"
     fit-margin-left="0.1"
     fit-margin-right="0.1"
     fit-margin-bottom="0.1"
     inkscape:window-width="1920"
     inkscape:window-height="1017"
     inkscape:window-x="-8"
     inkscape:window-y="-8"
     inkscape:window-maximized="1" />
  <metadata
     id="metadata28090">
    <rdf:RDF>
      <cc:Work
         rdf:about="">
        <dc:format>image/svg+xml</dc:format>
        <dc:type
           rdf:resource="http://purl.org/dc/dcmitype/StillImage" />
        <dc:title></dc:title>
      </cc:Work>
    </rdf:RDF>
  </metadata>
  <g
     inkscape:label="Layer 1"
     inkscape:groupmode="layer"
     id="layer1"
     transform="translate(-29.214074,-13.638803)">
    <path
       style="fill:#000000;stroke-width:0.352778"
       d="m 95.980755,161.86081 c -7.10697,-1.00968 -11.83999,-2.05218 -16.40417,-3.6132 -21.87452,-7.48144 -39.08629,-24.79539 -46.36664,-46.64192 -4.94219,-14.830282 -5.18218,-29.925642 -0.72031,-45.308138 2.76541,-9.533886 8.64631,-20.033833 15.62447,-27.8964 11.44541,-12.895997 27.44457,-21.527759 44.86804,-24.206923 3.94904,-0.607235 17.217605,-0.607235 21.166655,0 31.31808,4.815704 56.03267,28.295918 62.26836,59.158349 4.91992,24.35025 -2.70698,49.395302 -20.42116,67.058532 -11.24865,11.2163 -23.93075,17.76835 -40.2597,20.79969 -3.05009,0.56623 -17.093025,1.02828 -19.755545,0.65001 z m 21.290315,-5.58387 c 18.70867,-3.96416 34.07351,-14.3646 44.53649,-30.14671 11.57651,-17.46173 14.62865,-40.046792 8.06687,-59.692901 -3.55221,-10.635406 -8.56126,-18.981355 -16.03814,-26.722362 -6.37849,-6.603822 -12.00351,-10.736836 -19.75555,-14.515501 -9.7041,-4.730182 -19.74758,-7.050815 -30.51528,-7.050815 -23.805975,0 -45.512015,11.882036 -58.669965,32.116358 -11.28414,17.352769 -14.06757,39.449249 -7.48803,59.444321 1.78583,5.4271 3.28076,8.76391 5.98451,13.35798 8.53744,14.50635 22.2594,25.711 37.77211,30.84278 8.73722,2.89036 13.48562,3.57076 23.812485,3.41204 6.91929,-0.10634 8.49642,-0.24042 12.2945,-1.04519 z m 20.99651,-30.24126 c -0.60766,-0.16179 -1.70852,-0.96917 -2.44636,-1.79418 -0.73784,-0.82502 -3.76173,-4.00797 -6.71976,-7.07324 l -5.37823,-5.57322 -1.8768,1.04163 c -2.23016,1.23773 -6.8837,2.66674 -10.41104,3.19702 -6.51122,0.97884 -13.686145,-0.0419 -19.335195,-2.75062 -5.08453,-2.43808 -8.12173,-5.23646 -10.89905,-10.0421 l -0.98759,-1.70884 -1.11223,1.00055 c -0.61173,0.5503 -1.25705,1.11484 -1.43404,1.25453 -0.17699,0.13969 0.33894,0.97081 1.14653,1.84694 1.52612,1.65564 1.71812,2.24669 1.10314,3.39579 -0.63497,1.18645 -2.20224,0.87352 -3.64979,-0.72874 -0.70117,-0.77612 -1.34143,-1.41112 -1.42279,-1.41112 -0.0814,0 -1.05497,1.29443 -2.16357,2.87651 -3.10696,4.43397 -7.29217,8.92142 -9.16701,9.82901 -2.15618,1.04379 -3.77139,0.78604 -5.42278,-0.86535 -1.10786,-1.10786 -1.24859,-1.46789 -1.37991,-3.53011 l -0.14622,-2.29644 2.30792,-2.14994 c 1.26935,-1.18246 3.07355,-2.7233 4.00932,-3.42407 0.93577,-0.70078 2.26023,-1.69953 2.94325,-2.21945 0.683,-0.51992 1.953,-1.30416 2.82222,-1.74276 0.86921,-0.4386 1.63963,-0.85042 1.71205,-0.91516 0.0724,-0.0647 -0.5229,-0.86132 -1.32292,-1.77019 -1.58046,-1.795502 -1.85161,-3.079742 -0.77222,-3.657412 1.26002,-0.67434 2.22134,-0.39438 3.59146,1.04592 0.7383,0.77611 1.44201,1.41111 1.56381,1.41111 0.12179,0 1.51537,-1.19062 3.09684,-2.64583 2.87356,-2.64416 2.87666,-2.64583 4.87791,-2.64583 1.9903,0 2.01029,0.0106 3.27401,1.7321 3.263,4.445102 7.86059,7.478322 13.42888,8.859612 3.982325,0.98787 7.063925,0.80862 11.818175,-0.68744 5.54186,-1.7439 6.59322,0.14065 -9.56292,-17.141472 -7.796915,-8.34031 -14.311105,-15.1642 -14.475985,-15.1642 -0.16488,0 -2.34674,1.85821 -4.84858,4.12936 l -4.54881,4.12935 -5.15413,-5.50862 c -2.83477,-3.02974 -5.15413,-5.61945 -5.15413,-5.75491 0,-0.13546 4.20979,-4.158226 9.35509,-8.939479 6.44421,-5.988265 9.60006,-8.69225 10.14236,-8.690151 0.433,0.0018 4.51482,0.716047 9.07072,1.5875 4.55589,0.871449 8.445255,1.588399 8.643045,1.593222 0.19778,0.0048 -2.09714,2.360718 -5.099825,5.235321 l -5.45944,5.226554 1.40249,1.582014 c 0.77138,0.870105 7.433775,7.976409 14.805345,15.791789 l 13.40285,14.20978 1.64867,-1.793 c 3.20142,-3.48168 4.5328,-7.48091 4.79007,-14.38846 0.50014,-13.428067 -4.3832,-22.692018 -18.93832,-35.926931 -2.504,-2.276877 -4.05715,-3.925491 -3.7583,-3.98929 0.93104,-0.198756 7.04159,2.105968 10.61884,4.005119 4.97791,2.642764 8.32143,5.085278 12.04479,8.798997 3.65592,3.646456 5.82006,6.787032 8.23696,11.953405 2.58191,5.5191 2.99499,7.66372 2.99856,15.56788 0.003,7.39794 -0.41949,10.08894 -2.35129,14.96426 -1.09124,2.754 -3.79455,6.958232 -5.56441,8.653862 l -1.04883,1.00484 2.50689,2.68158 c 11.77077,12.59098 10.87038,11.49185 10.87038,13.26969 0,1.42837 -0.18043,1.81312 -1.4993,3.19703 -1.66583,1.74797 -3.06346,2.29754 -4.7208,1.85628 z"
       id="path28109" />
  </g>
</svg>
