<?xml version="1.0" encoding="UTF-8" standalone="no"?>
<svg
   xmlns:dc="http://purl.org/dc/elements/1.1/"
   xmlns:cc="http://creativecommons.org/ns#"
   xmlns:rdf="http://www.w3.org/1999/02/22-rdf-syntax-ns#"
   xmlns:svg="http://www.w3.org/2000/svg"
   xmlns="http://www.w3.org/2000/svg"
   xmlns:sodipodi="http://sodipodi.sourceforge.net/DTD/sodipodi-0.dtd"
   xmlns:inkscape="http://www.inkscape.org/namespaces/inkscape"
   width="56.367577mm"
   height="55.142014mm"
   viewBox="0 0 56.367577 55.142014"
   version="1.1"
   id="svg28165"
   inkscape:version="1.0.1 (3bc2e813f5, 2020-09-07)"
   sodipodi:docname="Nepalese Election Symbol Pen.svg">
  <defs
     id="defs28159">
    <clipPath
       clipPathUnits="userSpaceOnUse"
       id="clipPath28407">
      <path
         id="path28409"
         style="fill:#ff0000;fill-opacity:1;fill-rule:nonzero;stroke:none;stroke-width:0.264583"
         d="m 130.85662,103.32005 c 0.0214,0.006 0.0424,0.0133 0.0646,0.0145 0.005,3e-4 0.031,-0.0113 0.0424,-0.0145 z m -39.431187,1.50172 v 5.2e-4 5.1e-4 l -0.474906,5.2e-4 c -6.35e-4,0.0676 0.0023,0.1357 5.16e-4,0.20309 8.1e-5,0.004 -8.3e-5,0.004 0,0.008 0.0033,0.16202 0.0066,0.32374 0.0098,0.48576 0.0063,0.35342 0.01644,0.61753 -0.0026,0.98081 -0.0034,0.0652 0.01542,0.14657 -0.01395,0.20051 0.04026,0.0849 0.08378,0.1686 0.115755,0.25683 0.156128,0.43083 0.114304,0.88534 0.186552,1.32809 0.0122,0.13437 0.0296,0.26829 0.03617,0.40307 0.007,0.14406 -0.03737,0.28338 0.0047,0.42788 0.03546,0.12371 0.117195,0.22975 0.159164,0.3514 0.18839,0.5461 0.170081,0.43576 0.171049,0.80874 7.91e-4,0.45156 0.001,0.90296 -0.0057,1.35444 -0.02165,-0.0428 -5.77e-4,-0.004 0.0093,0.0801 0.01612,0.1367 -0.01375,0.70833 -0.04393,0.49196 -0.03338,0.18783 -9.61e-4,0.38362 -0.03669,0.57102 -0.04274,0.22415 -0.113275,0.44236 -0.19017,0.65732 7.8e-5,0.35675 -6.66e-4,0.7135 -5.16e-4,1.07022 -1.34e-4,1.2671 -2.6e-5,2.53422 0,3.80132 3.7e-5,0.55673 2e-6,1.11344 0,1.67018 v 2.23501 c -10e-7,0.67061 0,1.34166 0,2.01228 v 1.10019 0.86093 2.01641 1.98076 2.79776 2.03606 2.58123 1.60094 1.67535 2.44171 2.88045 1.26658 1.37253 1.233 2.1208 c -0.04325,0.72849 -0.245183,1.47525 -0.505912,2.15697 -0.224652,0.58741 -0.116566,0.10169 -0.210323,0.68265 -0.03211,0.63969 -0.183862,1.2672 -0.242362,1.90376 -0.02321,0.25252 -0.03024,0.50665 -0.03617,0.76016 -3.57e-4,0.0151 0.0018,0.0309 0.0021,0.046 0.04887,-0.0855 0.05944,-0.10673 0.14521,-0.25683 0.24613,-0.43073 0.562886,-0.60625 0.828374,-0.59738 0.430144,0.0144 0.719897,0.51512 0.359151,1.20251 1.482233,-0.10036 2.95923,-0.1546 4.437455,-0.11989 0.02956,-0.004 0.06022,-0.007 0.0894,-0.0114 0.10354,-0.005 0.207424,-0.006 0.311092,-0.006 0.225032,0.002 0.449175,0.0186 0.669727,0.0594 0.773038,0.043 1.546928,0.11063 2.322339,0.21807 0.919872,0.15699 1.870892,0.32202 2.829802,0.48421 0.0643,-0.0213 0.12877,-0.042 0.19275,-0.0641 0.0951,-0.0329 0.17785,-0.10259 0.27699,-0.11989 0.67344,-0.1175 1.35431,-0.18842 2.0314,-0.28267 0.73213,-0.0715 1.19786,-0.11413 1.68982,-0.16123 0.40983,-0.10724 0.81952,-0.21476 1.2299,-0.31988 0.0657,-0.0168 0.13169,-0.044 0.19947,-0.0408 0.17255,0.008 0.34422,0.0312 0.51625,0.047 0.41243,0.28588 0.61571,0.3338 0.32866,1.18391 -0.0577,0.17102 -0.27323,0.22481 -0.45579,0.28474 1.54617,0.03 3.09222,0.0588 4.63796,0.0269 1.08301,-0.12018 1.0832,-0.1295 2.50062,-0.21084 1.70008,-0.0975 3.23702,-0.15903 4.95939,-0.004 0.4554,0.0415 0.9024,0.14006 1.34721,0.25425 2.05887,-0.0733 4.11833,-0.1281 6.17895,-0.11162 0.55269,0.008 0.83329,0.007 1.42316,0.0419 0.64285,0.0381 1.2877,0.14068 1.92805,0.007 0.60813,-0.31364 0.57087,-0.36788 1.39682,-0.36638 0.0347,5e-5 0.0674,0.01 0.0997,0.0222 0.43234,-0.083 0.34877,-0.0702 0.74001,-0.0599 0.12087,0.003 0.23939,-0.006 0.29249,0.0212 0.29231,-0.12904 0.41695,-0.17111 0.67799,-0.0367 0.23564,-0.0772 0.50526,-0.10485 0.72244,-0.10594 0.43138,-0.002 0.86206,0.034 1.29139,0.0811 0.14576,-0.007 0.29264,0.0127 0.43977,0.0191 0.12161,0.005 0.40191,0.004 0.5302,0.005 1.11537,0.0107 2.23123,-0.0222 3.34657,-0.007 0.29757,2.7e-4 0.32918,5.3e-4 0.62063,5.3e-4 0.4403,-1.3e-4 0.45933,-0.0319 0.88005,0.51522 0.0193,-0.0103 0.0402,-0.0174 0.0599,-0.0269 0.0196,-0.0661 0.051,-0.12502 0.1049,-0.17105 0.1523,-0.13011 0.37813,-0.0676 0.59272,-0.0341 0.0226,-0.004 0.0451,-0.008 0.0677,-0.0119 0.21051,-0.12527 0.41483,-0.22162 0.58136,-0.11059 5.3e-4,-1.3e-4 0.001,-2.7e-4 0.002,-5.3e-4 1.7e-4,5.3e-4 2.6e-4,0.001 5.3e-4,0.002 0.008,0.005 0.0157,0.009 0.0233,0.015 0.0418,0.034 0.0741,0.073 0.0987,0.11576 0.87483,-0.0127 1.76368,-0.0238 2.63085,-0.0341 0.88403,0.0962 1.33183,0.13998 1.79524,0.1912 -0.0656,-0.5312 -0.31833,-1.03521 -0.31833,-1.58078 v -0.28525 -3.21996 -2.10581 -1.57407 -2.08204 -1.4888 -1.58802 -2.52646 -2.0686 -1.60404 -2.15801 -2.14044 c 0,-0.73316 -2e-5,-1.4662 0,-2.19935 0,-0.48652 3e-5,-0.97331 0,-1.45986 7e-5,-0.47407 2.3e-4,-0.94804 -5.3e-4,-1.42213 -5.3e-4,-0.53303 10e-4,-1.06583 0.003,-1.59887 -0.004,-0.35348 -0.0378,-0.54104 0.0765,-0.89504 0.024,-0.0745 -0.04,0.15168 -0.0599,0.22738 0.0556,-0.55285 -0.0466,0.50419 0.0176,-0.4346 0.004,-0.061 0.0398,-0.12124 0.0289,-0.18138 -0.0165,-0.091 -0.0819,-0.16706 -0.10801,-0.2558 -0.1055,-0.35818 -0.0897,-0.35489 -0.0951,-0.66043 -0.005,-0.42121 -0.0138,-0.84356 0.0419,-1.26193 -0.0731,-0.73875 0.052,0.44871 -0.10025,-0.6165 -0.10278,-0.7189 -0.0705,-1.43917 -0.0708,-2.16318 v -1.603 -1.51361 -1.1069 -0.678 c 0,-0.4886 -4e-5,-0.97745 0,-1.46606 5e-5,-0.36013 -1.9e-4,-0.72042 -5.3e-4,-1.08055 2.6e-4,-0.66966 0.002,-1.33901 0,-2.00867 -0.002,-0.92017 -0.002,-1.84044 0.0129,-2.76055 -2.6e-4,-0.15824 0.002,-0.31673 -0.002,-0.47491 -0.0123,-0.49101 -0.18232,-0.98339 0.23564,-1.34152 -0.0159,-0.16557 -0.0276,-0.33168 -0.0382,-0.49764 -0.0475,-6e-5 -0.0951,4.5e-4 -0.14263,0 -0.59888,-0.0113 -1.19763,-0.0137 -1.79627,-0.0336 -2.05317,-0.0684 0.47103,-0.0665 -2.21537,-0.10232 -1.27074,-0.0169 -1.03601,0.1165 -2.56418,-0.13901 -0.38254,-0.064 -0.74965,-0.20004 -1.12448,-0.29972 -0.56356,-0.1118 -1.12194,-0.25518 -1.69086,-0.33538 -0.40495,-0.0571 -0.81615,-0.0485 -1.22421,-0.0755 -1.58592,-0.10463 -3.20355,-0.1685 -4.76819,-0.47387 -0.23572,-0.046 -0.45761,-0.14666 -0.68626,-0.22015 -0.1456,-0.0353 -0.29057,-0.0738 -0.43563,-0.11162 -0.0277,0.004 -0.0555,0.008 -0.0832,0.0119 -0.16213,0.0426 -0.32074,0.10124 -0.48627,0.12764 -0.29224,0.0466 -0.58788,0.0709 -0.88316,0.0904 -0.18015,0.0119 -0.72003,-0.0707 -0.89865,0.13023 -0.16764,0.0374 -0.33287,0.0872 -0.50281,0.11214 -0.18252,0.0268 -0.45401,5e-4 -0.63459,-0.0196 -0.0651,-0.007 -0.12882,-0.0288 -0.1943,-0.03 -0.27683,-0.005 -3.07313,-0.004 -3.33933,-0.004 -4.34802,0.0178 -8.69613,0.0164 -13.04417,0.0124 -1.29251,-0.003 -2.58529,4e-5 -3.8778,0 -1.31433,-4e-4 -2.62858,-5e-5 -3.94291,0 0.74337,-0.15348 0.0699,-0.0628 -0.35656,-0.0145 -0.13391,0.10481 -0.30018,0.12024 -0.50333,0.18087 -0.63407,0.15271 -1.27655,0.25922 -1.92185,0.3514 -0.18094,0.0258 -0.36171,0.0581 -0.54415,0.0682 -0.62187,0.0347 -0.855799,0.0101 -1.425238,-0.0207 -0.584618,0.0517 -1.142634,0.1844 -1.691886,0.38602 -0.243787,0.0895 -0.388539,0.20336 -0.666626,0.20567 -0.152466,0.001 -0.300777,-0.0507 -0.451136,-0.076 -1.304589,-0.21944 1.859412,-1.15094 0.538469,-1.22318 -0.09336,-0.005 -0.186798,-0.009 -0.280086,-0.015 0.02042,8.2e-4 0.04351,0.002 0.05529,-0.002 0.132148,-0.0438 0.254872,-0.11199 0.386023,-0.15865 0.01975,-0.007 0.03967,-0.0122 0.05943,-0.0191 -0.217679,-0.0372 -0.357255,-0.0601 -0.654187,-0.10597 -2.476159,-0.3826 -1.905771,-0.29809 -3.962549,-0.56637 -0.241204,-0.0315 -0.430271,-0.10244 -0.573092,-0.19534 z m 8.530746,0.002 c 0.09942,0.14242 0.123371,0.30339 0.0832,0.45268 0.13201,-0.0135 0.26339,-0.0336 0.39481,-0.0522 0.61151,-0.0865 1.21629,-0.20249 1.82314,-0.31264 0.0223,-0.0229 0.0459,-0.0449 0.0729,-0.0625 0.0153,-0.01 0.031,-0.0165 0.0465,-0.0253 z m 40.767021,0.1297 c -0.34881,0.14862 -0.70532,0.27463 -1.08314,0.39791 0.24163,0.0504 0.48332,0.10237 0.72554,0.14883 0.40352,0.10626 0.79878,0.24952 1.21026,0.31884 1.28164,0.2159 1.13044,0.0827 2.1947,0.0951 2.68796,0.0313 0.27852,0.0361 2.32595,0.10438 0.5794,0.0193 1.15928,0.0209 1.73892,0.0315 0.0305,7.4e-4 0.061,10e-4 0.0915,0.002 0.0103,-0.36586 0.0377,-0.7309 0.078,-1.09451 -0.49004,-2e-5 -0.98006,-4e-5 -1.47019,0 -0.91834,-2.9e-4 -1.83653,-8.1e-4 -2.75487,10e-4 -1.01887,7.7e-4 -2.0378,-0.004 -3.05666,-0.005 z m -38.5253,0.0274 c -3.2e-4,2e-4 -8.7e-4,3.2e-4 -0.001,5.2e-4 -0.0685,0.0419 -0.20731,0.24524 -0.15038,0.18862 0.0567,-0.0564 0.10205,-0.12527 0.15141,-0.18914 z m -12.416294,48.31902 v 5.3e-4 c -6.36e-4,0.003 -10e-4,0.007 -0.0015,0.0103 9.86e-4,-0.003 0.0021,-0.007 0.0031,-0.0103 -5.39e-4,-8e-4 -4.05e-4,2.6e-4 -0.0016,-5.3e-4 z m 6.444051,5.99808 c -0.196678,0.0235 -0.435639,0.0534 -0.575676,0.092 -0.0857,0.0236 -0.155224,0.10106 -0.243912,0.10696 -0.03226,0.002 -0.01387,-0.10582 -0.04082,-0.0879 -0.184264,0.12216 -0.26899,0.18887 -0.320394,0.23668 0.0027,0.002 0.0056,0.003 0.0083,0.004 0.02203,0.0121 0.03346,0.033 0.04186,0.0563 0.05392,-0.0179 0.06182,-0.0208 10e-4,0.004 0.0039,0.0116 0.0085,0.023 0.01085,0.0362 h 5.29e-4 c 0.04163,-0.002 0.09015,5.3e-4 0.134359,5.3e-4 0.578429,0.002 1.156847,0.001 1.735294,0.001 h 0.700216 c 0.09542,-4e-5 0.190821,1e-5 0.286287,0 h 0.43615 c 0.03024,-0.11253 0.06234,-0.21346 0.09767,-0.29662 -0.485483,-0.0505 -0.970747,-0.0924 -1.455208,-0.11834 0.01959,0.004 0.05118,0.0101 0.03824,0.008 -0.02032,-0.003 -0.04024,-0.006 -0.06046,-0.009 -0.264925,-0.014 -0.529507,-0.0262 -0.794267,-0.0336 z m 32.192863,1.17357 c -0.0731,0.0284 -0.0637,0.0341 0.006,0.032 -0.003,-0.0172 -0.003,-0.0146 -0.006,-0.032 z m -0.11989,0.0594 c 0.0283,0.067 0.0562,0.132 0.0832,0.21032 0.0269,-0.0125 0.0537,-0.0253 0.0806,-0.0377 -0.0147,-0.0778 -0.0153,-0.0809 -0.032,-0.17053 -0.0421,-8e-4 -0.0886,-0.002 -0.13178,-0.002 z" />
    </clipPath>
  </defs>
  <sodipodi:namedview
     id="base"
     pagecolor="#ffffff"
     bordercolor="#666666"
     borderopacity="1.0"
     inkscape:pageopacity="0.0"
     inkscape:pageshadow="2"
     inkscape:zoom="1.979899"
     inkscape:cx="56.287572"
     inkscape:cy="163.27587"
     inkscape:document-units="mm"
     inkscape:current-layer="layer1"
     inkscape:document-rotation="0"
     showgrid="false"
     fit-margin-top="0.1"
     fit-margin-left="0.1"
     fit-margin-right="0.1"
     fit-margin-bottom="0.1"
     inkscape:window-width="1920"
     inkscape:window-height="1017"
     inkscape:window-x="-8"
     inkscape:window-y="-8"
     inkscape:window-maximized="1" />
  <metadata
     id="metadata28162">
    <rdf:RDF>
      <cc:Work
         rdf:about="">
        <dc:format>image/svg+xml</dc:format>
        <dc:type
           rdf:resource="http://purl.org/dc/dcmitype/StillImage" />
        <dc:title></dc:title>
      </cc:Work>
    </rdf:RDF>
  </metadata>
  <g
     inkscape:label="Layer 1"
     inkscape:groupmode="layer"
     id="layer1"
     transform="translate(-90.94058,-104.96659)">
    <path
       style="fill:#000000;stroke-width:0.122058"
       d="m 91.595948,159.70025 c 0.210061,-0.17767 0.801847,-0.67036 1.315088,-1.09483 0.513252,-0.4245 1.188308,-0.99049 1.50015,-1.25776 1.713237,-1.46845 2.925055,-2.42311 3.075828,-2.42311 0.22492,0 0.690667,-0.56752 0.690667,-0.84159 0,-0.42062 -0.290259,-0.81461 -0.692772,-0.9403 -0.519097,-0.16213 -0.966305,0.0177 -1.203792,0.4844 -0.263769,0.51819 -5.179133,6.20385 -5.232469,6.05243 -0.02566,-0.0727 0.01195,-0.19895 0.08356,-0.28057 0.220117,-0.25099 1.354432,-2.70287 1.685748,-3.64384 0.440498,-1.25105 0.808821,-2.73652 0.971392,-3.9177 0.07643,-0.5551 0.205742,-1.072 0.287433,-1.14867 0.08169,-0.0767 1.332086,-0.83855 2.778681,-1.69304 l 2.630171,-1.55364 0.694827,0.63195 c 2.74966,2.50082 3.76885,3.46533 3.76885,3.56659 0,0.0643 -0.16053,0.36176 -0.35677,0.66135 -0.19623,0.2996 -0.91612,1.46532 -1.59976,2.59051 -1.18381,1.94842 -1.26388,2.04903 -1.68213,2.11389 -3.342783,0.51845 -5.83777,1.31339 -8.153692,2.59786 -0.913935,0.50691 -1.080464,0.53542 -0.56105,0.0961 z m 10.975792,-11.05989 -2.94601,-2.7127 1.50168,-1.8837 c 4.98235,-6.2498 8.74219,-10.7535 12.16739,-14.57467 1.10536,-1.23311 2.10405,-2.3536 2.21933,-2.48994 0.20814,-0.24617 0.21469,-0.2434 0.94104,0.39701 0.40229,0.35469 2.25591,2.04234 4.11916,3.75034 1.86324,1.708 3.62769,3.30844 3.92098,3.55654 0.29329,0.24811 0.53324,0.51978 0.53324,0.60371 0,0.17503 -3.32185,3.08988 -6.90091,6.05538 -3.29226,2.72786 -12.4105,10.02127 -12.52129,10.01542 -0.0487,-0.003 -1.4143,-1.22541 -3.03461,-2.71739 z m 21.75005,-16.06061 c -1.09274,-1.00005 -2.91937,-2.67575 -4.05913,-3.72377 -1.13975,-1.04802 -2.41106,-2.20793 -2.82511,-2.57759 l -0.75283,-0.6721 1.00377,-0.97196 c 4.43701,-4.29636 8.35549,-7.82836 11.97397,-10.79295 0.43839,-0.35917 0.91609,-0.75321 1.06154,-0.8756 0.49894,-0.41988 5.03227,-3.8261 6.03613,-4.53537 1.93505,-1.36723 3.07685,-2.08633 3.25248,-2.0484 0.24951,0.054 1.70364,1.38998 1.70364,1.56535 0,0.13378 -1.3593,1.59157 -4.38867,4.70665 -0.66685,0.68571 -2.44848,2.52911 -3.9592,4.09644 -1.51074,1.56734 -2.98096,3.09015 -3.2672,3.38401 -2.88114,2.9581 -3.96505,4.13681 -4.03028,4.3828 -0.10119,0.38175 0.18898,0.8577 0.65121,1.06795 0.32833,0.14934 0.40979,0.14307 0.77335,-0.0595 0.22351,-0.12446 1.52461,-1.26822 2.89136,-2.54168 8.8699,-8.2644 13.74809,-12.76428 13.83741,-12.76428 0.18508,0 1.75804,1.49937 1.75804,1.6758 0,0.26664 -3.11876,4.56661 -4.89338,6.74673 -0.64116,0.78767 -3.90031,4.6074 -4.00847,4.69796 -0.0391,0.0327 -0.3811,0.4065 -0.76021,0.83078 -0.72226,0.80824 -0.79073,0.88226 -2.58134,2.79071 -1.69857,1.81037 -6.5401,6.68214 -7.17603,7.22084 -0.24994,0.21173 -0.28726,0.18505 -2.24105,-1.60295 z m 19.47558,-24.49154 -2.62406,-2.41957 0.42831,-0.2472 c 2.02742,-1.17013 5.37065,0.72567 5.59789,3.17429 0.0687,0.73951 -0.28485,1.83971 -0.60619,1.88683 -0.0945,0.0139 -1.35273,-1.0636 -2.79595,-2.39435 z"
       id="path24" />
  </g>
</svg>
