<?xml version="1.0" encoding="UTF-8" standalone="no"?>
<svg
   xmlns:dc="http://purl.org/dc/elements/1.1/"
   xmlns:cc="http://creativecommons.org/ns#"
   xmlns:rdf="http://www.w3.org/1999/02/22-rdf-syntax-ns#"
   xmlns:svg="http://www.w3.org/2000/svg"
   xmlns="http://www.w3.org/2000/svg"
   xmlns:sodipodi="http://sodipodi.sourceforge.net/DTD/sodipodi-0.dtd"
   xmlns:inkscape="http://www.inkscape.org/namespaces/inkscape"
   version="1.1"
   id="svg2511"
   width="111.05251"
   height="342.31061"
   viewBox="0 0 111.0525 342.3106"
   sodipodi:docname="Lauro.jpg"
   inkscape:version="1.0.1 (3bc2e813f5, 2020-09-07)">
  <metadata
     id="metadata2517">
    <rdf:RDF>
      <cc:Work
         rdf:about="">
        <dc:format>image/svg+xml</dc:format>
        <dc:type
           rdf:resource="http://purl.org/dc/dcmitype/StillImage" />
        <dc:title></dc:title>
      </cc:Work>
    </rdf:RDF>
  </metadata>
  <defs
     id="defs2515" />
  <sodipodi:namedview
     pagecolor="#ffffff"
     bordercolor="#666666"
     borderopacity="1"
     objecttolerance="10"
     gridtolerance="10"
     guidetolerance="10"
     inkscape:pageopacity="0"
     inkscape:pageshadow="2"
     inkscape:window-width="1920"
     inkscape:window-height="1017"
     id="namedview2513"
     showgrid="false"
     fit-margin-top="0.3"
     fit-margin-left="0.3"
     fit-margin-right="0.3"
     fit-margin-bottom="0.3"
     inkscape:zoom="1.1263251"
     inkscape:cx="44.340943"
     inkscape:cy="176.21284"
     inkscape:window-x="-8"
     inkscape:window-y="-8"
     inkscape:window-maximized="1"
     inkscape:current-layer="g2519" />
  <g
     inkscape:groupmode="layer"
     inkscape:label="Image"
     id="g2519"
     transform="translate(-18.366667,-12.453834)">
    <path
       style="fill:#000000;stroke-width:1.33333"
       d="M 48.531978,352.63514 C 44.63906,350.92721 44.347985,350.29035 43.554125,341.7439 43.090385,336.75143 42.696462,270.68388 42.678742,194.92715 42.646881,58.709502 42.616309,57.128389 39.911864,51.827237 38.251748,48.573142 34.894813,45.065349 31.368649,42.900095 25.038267,39.012903 18.666667,30.491754 18.666667,25.91292 c 0,-3.530494 4.47591,-9.461084 7.979726,-10.573152 1.530776,-0.485849 6.501864,0.904854 12.245667,3.425824 8.890818,3.902204 10.477753,4.183624 19.721721,3.497362 6.233491,-0.46277 14.61205,-2.358454 22.052888,-4.989562 15.095697,-5.337894 26.759961,-5.950709 34.666671,-1.821313 14.79278,7.725747 18.69696,29.454648 6.7042,37.312602 -4.52191,2.962869 -7.91504,1.420572 -10.76135,-4.891407 C 106.99136,38.371225 99.419857,34.784487 87.438833,36.581153 79.00402,37.846031 70.366182,45.777951 66.607686,55.709894 l -2.884901,7.62344 0.961639,143.481546 0.961637,143.48154 -3.119705,2.18513 c -3.700415,2.59187 -8.321171,2.64258 -13.994378,0.15359 z m 9.801357,-2.80885 3,-0.80396 8.29e-4,-30.8445 8.28e-4,-30.84449 -6.667495,0.46201 -6.667496,0.46203 v 29.91428 c 0,29.77604 0.01387,29.91985 3,31.12013 3.75092,1.50768 3.712388,1.50488 7.333334,0.5345 z m -7.666667,-9.74759 c 0,-2.24328 0.6,-4.07869 1.333333,-4.07869 0.733334,0 1.333334,1.46458 1.333334,3.25464 0,1.79005 -0.6,3.62546 -1.333334,4.07869 -0.777897,0.48077 -1.333333,-0.87504 -1.333333,-3.25464 z m 0.509018,-22.07869 c 0.0027,-8.8 0.218427,-12.2265 0.479534,-7.61442 0.261107,4.61207 0.258951,11.81207 -0.0048,16 -0.263737,4.18792 -0.47737,0.41442 -0.474734,-8.38558 z m 7.157649,-34.84039 c 2.928448,-0.78479 3,-1.24547 3,-19.31512 v -18.51116 h -6.666667 -6.666667 v 18.55556 c 0,13.59688 0.445389,18.73526 1.666667,19.22807 2.370657,0.95658 5.204332,0.97053 8.666667,0.0427 z m -9.000001,-5.82628 c 0,-2.2 0.6,-4 1.333334,-4 0.733333,0 1.333333,1.8 1.333333,4 0,2.2 -0.6,4 -1.333333,4 -0.733334,0 -1.333334,-1.8 -1.333334,-4 z m 0.885644,-15 c 1.052939,-11.17242 1.781023,-11.39952 1.781023,-0.55556 0,4.88889 -0.577438,8.88889 -1.283197,8.88889 -0.768939,0 -0.96845,-3.33969 -0.497826,-8.33333 z M 61.333335,222 V 202.66667 H 54.666668 48.000001 V 222 241.33334 h 6.666667 6.666667 z m -12.000001,14.66667 c 0,-1.1 0.6,-2 1.333334,-2 0.733333,0 1.333333,0.9 1.333333,2 0,1.1 -0.6,2 -1.333333,2 -0.733334,0 -1.333334,-0.9 -1.333334,-2 z m 0.09371,-10.33333 c 0.161421,-9.76075 2.372715,-12.13922 2.47924,-2.66667 0.05319,4.72915 -0.48295,8.33333 -1.239613,8.33333 -0.733334,0 -1.291163,-2.55 -1.23962,-5.66666 z m 9.348676,-29 c 2.399476,0 2.557618,-1.15419 2.557618,-18.66667 V 160 h -6.666667 -6.666667 v 18.56891 c 0,16.56493 0.251813,18.63429 2.333333,19.17484 1.283334,0.33328 3.132406,0.37727 4.10905,0.0977 0.976645,-0.2795 2.926645,-0.50818 4.333333,-0.50818 z m -9.231856,-8 c 0,-1.83334 0.302631,-2.58334 0.672515,-1.66667 0.369882,0.91667 0.369882,2.41667 0,3.33333 -0.369884,0.91667 -0.672515,0.16667 -0.672515,-1.66666 z m -0.07659,-11.4 0.133935,-6.6 1.228021,5.23804 c 0.802683,3.4238 0.756294,5.70977 -0.133934,6.6 -0.927052,0.92705 -1.319188,-0.74558 -1.228022,-5.23804 z M 61.333335,136 v -20 h -6.592542 -6.592541 l -0.407459,17 c -0.574699,23.9776 -0.873023,23 7.01861,23 h 6.573932 z m -11.979583,7.66667 c 0.0112,-4.58333 0.602041,-9.23333 1.312916,-10.33333 0.896077,-1.38658 1.298761,1.16933 1.312916,8.33333 C 51.991451,147.68028 51.442617,152 50.666668,152 c -0.748844,0 -1.324383,-3.65305 -1.312916,-8.33333 z M 60.666668,89.541019 c 0,-11.985774 -0.3,-21.94233 -0.666667,-22.12568 -0.366666,-0.18335 -3.216666,-0.06379 -6.333333,0.265697 l -5.666667,0.59906 v 21.933008 21.933006 l 6.333334,-0.40639 6.333333,-0.40638 z m -9.534115,9.125649 c 0,-6.233333 0.229675,-8.783333 0.510388,-5.666666 0.280714,3.116666 0.280714,8.216668 0,11.333338 C 51.362228,107.45 51.132553,104.9 51.132553,98.666668 Z m 8.947852,-37.333334 c 0.560262,-1.1 2.023138,-4.855614 3.250836,-8.345812 4.337267,-12.33032 16.242099,-20.13342 30.899764,-20.253451 9.926465,-0.08129 14.309075,2.564035 18.794035,11.343987 1.66378,3.257068 3.61378,5.861943 4.33334,5.78861 0.71956,-0.07333 1.89288,-0.223334 2.60738,-0.333334 2.44019,-0.375674 5.36758,-8.058711 5.36758,-14.087392 0,-4.850481 -0.81544,-6.948551 -4.19793,-10.800991 -9.04712,-10.3041 -17.07521,-11.036703 -40.611508,-3.705993 -20.253927,6.308368 -29.714398,6.62378 -41.018358,1.367553 -9.711409,-4.515707 -12.54475,-4.587055 -14.153243,-0.356399 -2.037063,5.357884 0.776249,10.537434 9.332528,17.181985 8.582799,6.665144 11.502179,11.056211 12.105328,18.207739 0.216167,2.56309 0.631883,5.141973 0.923812,5.730849 0.916688,1.849131 11.281387,0.393003 12.366436,-1.737351 z M 34.409039,35.616605 C 29.226393,31.108614 26.679417,24.973544 29.314474,23.34499 c 0.887384,-0.548434 1.426687,-0.189342 1.283392,0.854541 -0.514599,3.748781 0.223724,5.081454 5.735468,10.352511 6.700839,6.408225 5.183891,7.247436 -1.924295,1.064563 z M 110.66667,21.748958 c -3.22096,-1.40354 -6.9385,-1.803874 -12.000001,-1.292252 -4.756684,0.480812 -6.39637,0.329489 -4.666667,-0.430675 5.146844,-2.261916 16.141808,-1.550504 19.518958,1.262944 3.72214,3.100855 3.34702,3.161349 -2.85229,0.459983 z"
       id="path3084" />
  </g>
</svg>
