<?xml version="1.0" encoding="UTF-8"?>
<svg version="1.1" xmlns="http://www.w3.org/2000/svg" width="100" height="80">
<path d="M0 0 C33 0 66 0 100 0 C100 26.4 100 52.8 100 80 C67 80 34 80 0 80 C0 53.6 0 27.2 0 0 Z " fill="#FCFCFC" transform="translate(0,0)"/>
<path d="M0 0 C0.66 0 1.32 0 2 0 C2.39771606 0.93066284 2.39771606 0.93066284 2.8034668 1.88012695 C7.57257433 13.98293476 7.57257433 13.98293476 16.2734375 22.95703125 C19.56024603 23.62454225 22.65293896 23.86397412 26 24 C27.95367682 24.50344749 29.89450525 25.06171358 31.8125 25.6875 C32.62332031 25.93886719 33.43414062 26.19023437 34.26953125 26.44921875 C34.84058594 26.63097656 35.41164063 26.81273438 36 27 C34.4106983 30.98736049 31.60297545 33.59034031 28.5625 36.5 C22.79702967 41.45209435 22.79702967 41.45209435 19.671875 48.015625 C19.69765625 48.75296875 19.7234375 49.4903125 19.75 50.25 C19.77578125 51.10851563 19.8015625 51.96703125 19.828125 52.8515625 C20.17674598 59.23766501 20.55670467 65.61971362 21 72 C20.34 72 19.68 72 19 72 C19 71.34 19 70.68 19 70 C18.01193359 69.88011719 18.01193359 69.88011719 17.00390625 69.7578125 C12.22458923 68.55210704 8.10415814 66.05609532 3.79492188 63.70703125 C3.10849609 63.34738281 2.42207031 62.98773438 1.71484375 62.6171875 C1.09730225 62.28315918 0.47976074 61.94913086 -0.15649414 61.60498047 C-4.59613968 60.14802885 -9.45556184 63.32078903 -13.5625 65 C-20.6790393 67.8930131 -20.6790393 67.8930131 -24 69 C-23.89940835 67.255698 -23.7982014 65.51142955 -23.6940918 63.76733398 C-23.60602229 62.29172046 -23.52026509 60.81596718 -23.43676758 59.34008789 C-23.20611738 55.48554356 -22.83804341 51.74782568 -22.1875 47.9375 C-21.83123092 40.45584929 -26.71505964 35.91615525 -31.4140625 30.6015625 C-32.92623217 28.90318628 -32.92623217 28.90318628 -35 28 C-35 27.01 -35 26.02 -35 25 C-29.89595488 23.0343645 -25.02007694 22.39987989 -19.625 21.875 C-18.79355469 21.78863281 -17.96210938 21.70226562 -17.10546875 21.61328125 C-15.07092853 21.40281157 -13.0355403 21.20056686 -11 21 C-10.80748657 20.10571289 -10.80748657 20.10571289 -10.61108398 19.19335938 C-9.70744271 15.9499262 -7.86211737 13.3093142 -6.0625 10.5 C-2.80682936 5.37745258 -2.80682936 5.37745258 0 0 Z " fill="#0C0D11" transform="translate(49,3)"/>
<path d="M0 0 C0.33 0 0.66 0 1 0 C1 5.94 1 11.88 1 18 C2.98 18.33 4.96 18.66 7 19 C4.01353231 20.99097846 1.40312738 21.94124926 -2 23 C-1.85775413 20.47891897 -1.71129879 17.95819597 -1.5625 15.4375 C-1.52318359 14.73302734 -1.48386719 14.02855469 -1.44335938 13.30273438 C-1.17481721 8.8201459 -0.69383803 4.43706503 0 0 Z " fill="#444649" transform="translate(27,49)"/>
<path d="M0 0 C-0.99 0.33 -1.98 0.66 -3 1 C-3.33 1.66 -3.66 2.32 -4 3 C-6.01822917 2.96744792 -8.03645833 2.93489583 -10.0546875 2.90234375 C-12.08185404 2.87350758 -12.08185404 2.87350758 -14 4 C-14 3.01 -14 2.02 -14 1 C-8.80451575 -1.20808081 -5.41735797 -0.93402724 0 0 Z M-6 3 C-4 4 -4 4 -4 4 Z " fill="#302E2D" transform="translate(28,27)"/>
<path d="M0 0 C0.66 0 1.32 0 2 0 C2.625 2.375 2.625 2.375 3 5 C2.34 5.66 1.68 6.32 1 7 C0.60235737 8.98821313 0.26224651 10.98944339 0 13 C-0.33 13 -0.66 13 -1 13 C-1.66 10.69 -2.32 8.38 -3 6 C-2.34 6 -1.68 6 -1 6 C-1 5.34 -1 4.68 -1 4 C-1.66 4 -2.32 4 -3 4 C-2.67 3.34 -2.34 2.68 -2 2 C-1.34 2.33 -0.68 2.66 0 3 C0 2.01 0 1.02 0 0 Z " fill="#181A1D" transform="translate(68,42)"/>
<path d="M0 0 C0.66 0 1.32 0 2 0 C2.33 1.32 2.66 2.64 3 4 C2.34 3.67 1.68 3.34 1 3 C-0.32 6.3 -1.64 9.6 -3 13 C-3.99 12.67 -4.98 12.34 -6 12 C-4.43358249 7.69235185 -2.31663844 3.93828536 0 0 Z " fill="#3C3A3A" transform="translate(49,3)"/>
<path d="M0 0 C2.64 0.33 5.28 0.66 8 1 C6.25 4.875 6.25 4.875 4 6 C4 4.68 4 3.36 4 2 C1.00667261 2.9977758 0.05233685 3.7522025 -2 6 C-2 4.68 -2 3.36 -2 2 C-1.34 2 -0.68 2 0 2 C0 1.34 0 0.68 0 0 Z " fill="#141517" transform="translate(77,29)"/>
<path d="M0 0 C0.66 0.33 1.32 0.66 2 1 C2 1.66 2 2.32 2 3 C2.66 3.33 3.32 3.66 4 4 C-5.41002278 6.29612756 -5.41002278 6.29612756 -10 6 C-10 5.34 -10 4.68 -10 4 C-7.03 4 -4.06 4 -1 4 C-0.67 2.68 -0.34 1.36 0 0 Z " fill="#CDCAC2" transform="translate(34,20)"/>
<path d="M0 0 C3 3.75 3 3.75 3 6 C2.34 6 1.68 6 1 6 C1 6.99 1 7.98 1 9 C0.01 8.67 -0.98 8.34 -2 8 C-2.20086443 4.28400809 -2.1519437 3.22791555 0 0 Z " fill="#1B1C1B" transform="translate(54,11)"/>
</svg>
