<?xml version="1.0" encoding="UTF-8"?>
<svg version="1.1" xmlns="http://www.w3.org/2000/svg" width="386" height="342">
<path d="M0 0 C-1.71963913 5.9281805 -4.47539137 11.28353169 -7.20703125 16.79296875 C-7.72410141 17.84369568 -8.24117157 18.89442261 -8.77391052 19.97698975 C-9.87853149 22.22080242 -10.98482841 24.46379067 -12.09265137 26.70602417 C-14.39723183 31.37116796 -16.69299334 36.04063002 -18.98904419 40.7099762 C-20.12006439 43.01000248 -21.25147043 45.30983907 -22.38327026 47.60948181 C-36.5722345 76.44310902 -50.36340625 105.44805616 -63 135 C-59.04 135.99 -55.08 136.98 -51 138 C-50.64035156 136.81921875 -50.28070313 135.6384375 -49.91015625 134.421875 C-47.59051837 127.48590134 -44.48080879 120.88975188 -41.4375 114.25 C-41.11519409 113.54313049 -40.79288818 112.83626099 -40.46081543 112.10797119 C-33.27395819 96.35763037 -25.68482255 80.80679036 -18.06175232 65.26423645 C-15.03787761 59.09321073 -12.07118604 52.89598412 -9.125 46.6875 C-4.83720967 37.66057299 -0.39326593 28.71650979 4.11865234 19.79956055 C4.59641113 18.85250244 5.07416992 17.90544434 5.56640625 16.9296875 C5.98865479 16.09679199 6.41090332 15.26389648 6.84594727 14.40576172 C8.01244209 11.97406296 9.02721624 9.51472864 10 7 C10.66 7 11.32 7 12 7 C29.26738325 41.18739616 41.49366313 76.10983719 41.3125 114.75 C41.31100952 115.53925873 41.30951904 116.32851746 41.3079834 117.14169312 C41.26782128 128.98487201 40.76478732 140.43607628 38 152 C37.83951172 152.69867188 37.67902344 153.39734375 37.51367188 154.1171875 C35.96232974 160.76058207 34.22731857 166.93960917 31 173 C30.45988281 172.28199219 29.91976562 171.56398437 29.36328125 170.82421875 C14.71335309 153.31694924 -10.29494309 138.35236385 -33.0625 136.1875 C-38.46929775 135.75218023 -44.07573059 135.46705106 -49 138 C-51.63973747 141.16852919 -53.23632349 144.70035209 -54.9375 148.4375 C-55.97068805 150.5589183 -57.00455084 152.6800081 -58.0390625 154.80078125 C-58.54083008 155.8573291 -59.04259766 156.91387695 -59.55957031 158.00244141 C-61.53131151 162.10566825 -63.66224344 166.11342063 -65.8125 170.125 C-78.75884847 194.63517908 -91.33248667 219.3450349 -104 244 C-103.33484375 244.74636719 -102.6696875 245.49273437 -101.984375 246.26171875 C-100 249 -100 249 -100.25 252.8125 C-100.62125 254.3903125 -100.62125 254.3903125 -101 256 C-101.66 256 -102.32 256 -103 256 C-103.2784375 257.2375 -103.2784375 257.2375 -103.5625 258.5 C-104.88177027 261.7121363 -105.71285455 262.95331658 -108 265.375 C-111.55324502 269.22373317 -114.22060569 273.3615391 -116.9375 277.8125 C-117.80550542 279.21644529 -118.67399092 280.62009388 -119.54296875 282.0234375 C-121.01284682 284.39850748 -122.47356871 286.77807435 -123.92578125 289.1640625 C-129.18422567 297.15869963 -136.57262018 304.02921633 -146.03710938 306.54052734 C-155.70440975 308.30132451 -163.9962347 307.01667838 -172.20703125 301.5234375 C-178.45774394 296.62955855 -182.48263602 289.81672351 -184 282 C-184.62628575 275.02654908 -183.56533335 269.45548673 -181 263 C-180.62875 261.783125 -180.2575 260.56625 -179.875 259.3125 C-176.73459521 253.76445154 -171.77831754 250.92610585 -165.8125 248.9375 C-162.24673582 249.0167392 -160.03495128 250.19348138 -157 252 C-157 252.66 -157 253.32 -157 254 C-156.01 254.33 -155.02 254.66 -154 255 C-152.73889398 257.6192202 -153.01767538 259.08307426 -153.625 261.9375 C-155.48846025 266.0879342 -158.22950164 268.70163453 -161.875 271.375 C-163.33797337 273.15033716 -163.33797337 273.15033716 -162.9375 276.5 C-162.29520662 279.95723617 -162.29520662 279.95723617 -160.3125 281.875 C-156.03415903 283.95635507 -152.61962817 284.428757 -148.0625 283.0625 C-140.16128453 279.69995983 -136.14353442 272.29404852 -132.91015625 264.71484375 C-132.0756322 262.2255982 -131.71051991 260.22728556 -131.5625 257.625 C-131.15048182 251.30738795 -128.4606863 245.23818766 -125 240 C-120.08921162 237 -120.08921162 237 -117 237 C-116.72030869 236.1171936 -116.44061737 235.23438721 -116.15245056 234.3248291 C-115.12023969 231.34689247 -113.95076814 228.62633935 -112.56079102 225.80273438 C-112.07590714 224.81309692 -111.59102325 223.82345947 -111.09144592 222.80383301 C-110.56755783 221.74450562 -110.04366974 220.68517822 -109.50390625 219.59375 C-108.68163795 217.92016418 -108.68163795 217.92016418 -107.84275818 216.21276855 C-106.38166846 213.24099751 -104.91723498 210.2709222 -103.45123291 207.30157471 C-102.00147928 204.36273962 -100.55674081 201.42144068 -99.11132812 198.48046875 C-96.28948743 192.74279639 -93.45841707 187.00975026 -90.62200928 181.27926636 C-89.56019026 179.13255398 -88.49994757 176.98506101 -87.44146729 174.83670044 C-81.88747531 163.56512536 -76.24406954 152.52861995 -69.640625 141.83007812 C-69.145625 140.99798828 -68.650625 140.16589844 -68.140625 139.30859375 C-67.70266602 138.59501709 -67.26470703 137.88144043 -66.81347656 137.14624023 C-65.76286862 134.37436315 -66.15564029 132.80522098 -67 130 C-76.04569489 113.73928657 -91.75825992 103.03106134 -109 97 C-109.86753906 96.68160156 -110.73507813 96.36320312 -111.62890625 96.03515625 C-123.28235194 92.26645623 -135.98211299 92.48182878 -147 98 C-149.74124562 99.32127577 -149.74124562 99.32127577 -152 101 C-152.81870185 104.56206661 -152.81870185 104.56206661 -153 108 C-154 109 -154 109 -156.875 109.25 C-160 109 -160 109 -161.875 107.5 C-162.24625 107.005 -162.6175 106.51 -163 106 C-162.690625 104.948125 -162.38125 103.89625 -162.0625 102.8125 C-161.24314906 99.87247604 -160.54516069 96.99838377 -160 94 C-157 95 -154 96 -151 97 C-150.40574219 96.00742188 -149.81148437 95.01484375 -149.19921875 93.9921875 C-140.52238117 79.69091568 -130.51816298 67.10293125 -119 55 C-118.34773438 54.29488281 -117.69546875 53.58976562 -117.0234375 52.86328125 C-89.51885955 24.0127346 -40.63909127 -1.51400536 0 0 Z " fill="#252223" transform="translate(259,35)"/>
<path d="M0 0 C1.22529419 -0.00101212 1.22529419 -0.00101212 2.4753418 -0.00204468 C27.12721795 0.03016386 52.35425033 2.62581571 75.3125 12.25 C72.46613746 13.81711665 70.01778588 14.6165623 66.8125 15.109375 C65.9354541 15.2522998 65.0584082 15.39522461 64.15478516 15.54248047 C63.21683105 15.69346191 62.27887695 15.84444336 61.3125 16 C50.33000522 17.88877863 39.86874166 20.70712078 29.3125 24.25 C28.61995117 24.47913086 27.92740234 24.70826172 27.21386719 24.94433594 C0.58942791 33.88838209 -23.36975564 48.95113958 -43.6875 68.25 C-44.20924805 68.73919922 -44.73099609 69.22839844 -45.26855469 69.73242188 C-59.55379915 83.20160217 -70.6574036 98.42751327 -80.6875 115.25 C-84.25465898 114.06094701 -84.58509948 113.23737275 -86.5 110.125 C-97.42668103 93.29844036 -114.8986045 81.7687012 -134.30859375 76.7109375 C-143.96792233 74.83934346 -155.62182408 73.75593499 -164.375 79.1875 C-166.91751963 81.11087201 -166.91751963 81.11087201 -167.6875 84.25 C-168.3475 84.25 -169.0075 84.25 -169.6875 84.25 C-170.0175 85.24 -170.3475 86.23 -170.6875 87.25 C-174.0625 87.4375 -174.0625 87.4375 -177.6875 87.25 C-179.6875 84.25 -179.6875 84.25 -179.625 81.8125 C-178.39041335 78.43796316 -176.65037096 77.20115892 -173.6875 75.25 C-173.0275 75.25 -172.3675 75.25 -171.6875 75.25 C-171.43782471 74.51354248 -171.18814941 73.77708496 -170.9309082 73.01831055 C-169.57743295 70.00494792 -168.11515183 68.29039531 -165.79296875 65.95703125 C-164.6167395 64.77149658 -164.6167395 64.77149658 -163.41674805 63.56201172 C-162.57797119 62.73717285 -161.73919434 61.91233398 -160.875 61.0625 C-160.01495361 60.21187988 -159.15490723 59.36125977 -158.26879883 58.48486328 C-147.7241588 48.18755571 -136.24832175 39.90425076 -123.6875 32.25 C-123.10226563 31.88551758 -122.51703125 31.52103516 -121.9140625 31.14550781 C-85.8983291 8.87158535 -41.88853701 0.0312143 0 0 Z " fill="#242122" transform="translate(179.6875,9.75)"/>
<path d="M0 0 C24.77276911 8.67985281 48.34752541 35.23112547 63 56 C63.80099121 57.12365967 63.80099121 57.12365967 64.61816406 58.27001953 C82.2347252 83.19621294 95.43487753 110.10706348 102 140 C102.24556641 141.0835376 102.24556641 141.0835376 102.49609375 142.18896484 C106.69066292 161.41551795 110.11721168 191.76557663 101 210 C101.66 210 102.32 210 103 210 C103.08096803 211.45742463 103.13917774 212.91612807 103.1875 214.375 C103.23970703 215.59316406 103.23970703 215.59316406 103.29296875 216.8359375 C103.19628906 217.55007812 103.09960938 218.26421875 103 219 C100 221 100 221 97.4375 220.8125 C95 220 95 220 93 217 C93.2784375 215.4221875 93.2784375 215.4221875 93.5625 213.8125 C94.24330072 207.87980801 92.65822115 204.14815013 89.109375 199.55078125 C86.82192349 196.93940741 84.450641 194.45849562 82 192 C81.319375 191.29617187 80.63875 190.59234375 79.9375 189.8671875 C69.08454528 179.38421987 53.35131508 172.22874847 38.1875 171.5625 C33.24675086 171.80625612 28.64108904 173.38315851 24 175 C23.01 175.33 22.02 175.66 21 176 C21.15855469 175.46117187 21.31710937 174.92234375 21.48046875 174.3671875 C39.00110873 112.60935154 27.71778921 56.74611219 0 0 Z " fill="#242122" transform="translate(281,36)"/>
<path d="M0 0 C0.99 0 1.98 0 3 0 C2.54135697 6.28693757 1.01488548 10.77873678 -1.9375 16.3125 C-2.29779297 17.01439453 -2.65808594 17.71628906 -3.02929688 18.43945312 C-4.56200486 21.40043043 -6.14931742 24.22397613 -8 27 C-9.65 26.67 -11.3 26.34 -13 26 C-12.45651764 20.75174495 -10.69336388 16.97170379 -8.1875 12.4375 C-7.84396484 11.79103516 -7.50042969 11.14457031 -7.14648438 10.47851562 C-5.09181542 6.68913554 -2.98172673 3.15107429 0 0 Z " fill="#363334" transform="translate(281,0)"/>
<path d="M0 0 C4.43090471 1.20842856 6.98112756 2.51668565 10 6 C9.01 6.495 9.01 6.495 8 7 C7.62599214 9.32716 7.29235267 11.66117862 7 14 C6 15 6 15 3.125 15.25 C0 15 0 15 -1.875 13.5 C-2.24625 13.005 -2.6175 12.51 -3 12 C-2.690625 10.948125 -2.38125 9.89625 -2.0625 8.8125 C-1.24314906 5.87247604 -0.54516069 2.99838377 0 0 Z " fill="#383637" transform="translate(99,129)"/>
<path d="M0 0 C2.64 1.32 5.28 2.64 8 4 C7.67 5.32 7.34 6.64 7 8 C4.75 8.6875 4.75 8.6875 2 9 C-0.3125 7.5625 -0.3125 7.5625 -2 6 C-1.34 4.02 -0.68 2.04 0 0 Z " fill="#373435" transform="translate(290,214)"/>
</svg>
