<?xml version="1.0" encoding="UTF-8"?>
<svg version="1.1" xmlns="http://www.w3.org/2000/svg" width="768" height="576">
<path d="M0 0 C5.40787342 2.86367711 7.34753207 5.91824098 9.26953125 11.53125 C9.69586601 12.6981134 9.69586601 12.6981134 10.1308136 13.8885498 C11.10853271 16.58519966 12.05443626 19.29191741 13 22 C13.74427855 24.08889874 14.48960533 26.17742421 15.23583984 28.265625 C17.75027882 35.33314888 20.21940437 42.41618929 22.6875 49.5 C23.58494252 52.06919177 24.48344693 54.63801158 25.38208008 57.20678711 C27.14128388 62.23625353 28.89922093 67.26615998 30.65625 72.29638672 C33.48468802 80.39051275 36.33039859 88.47845338 39.1875 96.5625 C39.40998413 97.19232788 39.63246826 97.82215576 39.86169434 98.47106934 C41.57277193 103.31464486 43.28618629 108.15739204 45 113 C45.32846924 113.92826599 45.65693848 114.85653198 45.99536133 115.81292725 C48.64196785 123.29222524 51.28945833 130.77121 53.9375 138.25 C54.3033017 139.28319366 54.66910339 140.31638733 55.04598999 141.38088989 C59.01587895 152.59256417 62.99004831 163.80258141 67 175 C67.66418945 174.72325439 68.32837891 174.44650879 69.01269531 174.16137695 C84.578125 167.67578125 84.578125 167.67578125 87.78295898 166.34814453 C89.95131503 165.43946561 92.11226073 164.51292343 94.26586914 163.56982422 C95.30864014 163.11752441 96.35141113 162.66522461 97.42578125 162.19921875 C98.35559814 161.78889404 99.28541504 161.37856934 100.2434082 160.95581055 C105.68519462 159.06894545 111.33515952 158.79665177 116.62109375 161.18359375 C119.5227905 163.39917501 120.55044242 165.2691191 122.125 168.5625 C122.40722412 169.15111816 122.68944824 169.73973633 122.98022461 170.34619141 C129.17973955 183.53297797 134.91339465 197.04937375 139.875 210.75 C143.23194081 219.98404833 147.26141937 228.93923838 151.24365234 237.91699219 C153.86846128 243.86509723 156.34523135 249.81539851 158.484375 255.9609375 C161.1636515 263.65418812 164.39220794 271.05656048 167.6875 278.5 C168.56260839 280.48322378 169.43624626 282.46706008 170.30683899 284.45227051 C171.08767037 286.23195791 171.87314836 288.00960456 172.65893555 289.78710938 C173.92631064 292.82345677 175.00401179 295.86543585 176 299 C176.66 298.67 177.32 298.34 178 298 C183.24249422 296.25250193 187.0855115 296.05153781 191.98046875 298.4765625 C195.90048317 301.75253833 197.4017877 305.12024507 199.375 309.75 C199.72949219 310.54277344 200.08398438 311.33554687 200.44921875 312.15234375 C201.3150806 314.09468249 202.15972089 316.0464577 203 318 C213.45220419 313.43948254 223.74914009 308.74003358 233.77758789 303.3046875 C238.57194244 300.71866552 243.42782024 298.34127391 248.375 296.0625 C255.36696181 292.83537841 262.17924618 289.33144256 268.97729492 285.71557617 C275.94332492 282.01302698 282.97889738 278.46784925 290.04833984 274.96777344 C293.3699688 273.32067097 296.68456829 271.65953109 300 270 C301.33330079 269.33326826 302.6666341 268.66660154 304 268 C304.66 267.67 305.32 267.34 306 267 C313.33333333 263.33333333 320.66666667 259.66666667 328 256 C328.65991943 255.67 329.31983887 255.34 329.99975586 255 C331.33377284 254.33307292 332.66792013 253.66640643 334.00219727 253 C337.32618585 251.33942466 340.64782244 249.67445394 343.96484375 248 C350.78587806 244.56305123 357.63457379 241.21659326 364.5625 238 C370.6189356 235.18292525 376.53608362 232.18093117 382.40869141 229 C388.85772391 225.51237957 395.41452841 222.25369911 401.98388672 219 C405.32686061 217.341872 408.66309087 215.6702896 412 214 C413.33330078 213.33326822 414.66663412 212.66660157 416 212 C416.66 211.67 417.32 211.34 418 211 C420 210 422 209 424 208 C424.6597583 207.67008057 425.3195166 207.34016113 425.99926758 207.00024414 C427.33491219 206.33250333 428.67068734 205.66502354 430.0065918 204.99780273 C433.30567364 203.34966773 436.60248826 201.69731115 439.89453125 200.03515625 C447.07093227 196.41870219 454.28498535 192.90885286 461.5625 189.5 C467.96736179 186.49750041 474.23619377 183.32925528 480.4465332 179.94482422 C484.97300967 177.49739354 489.57825783 175.2804856 494.25 173.125 C501.28282396 169.87567258 508.13782075 166.35350519 514.97680664 162.71582031 C521.23476205 159.38966364 527.54419649 156.18548891 533.89306641 153.03710938 C543.11383957 148.46442288 552.32179214 143.87009736 561.47859192 139.17037964 C564.95248683 137.38950537 568.43209789 135.619968 571.91235352 133.8515625 C573.69770864 132.94103961 575.48054789 132.02556866 577.26098633 131.10546875 C579.87709568 129.75497333 582.50183733 128.42277282 585.12890625 127.09375 C586.3118502 126.47518127 586.3118502 126.47518127 587.51869202 125.84411621 C592.19574985 123.50393578 595.6466947 122.41976862 601 123 C604.18459646 124.51992104 606.73579966 126.28295959 609 129 C610.20643566 132.61930698 610.32268559 135.19231005 610 139 C607.37606812 143.81002332 604.95387226 146.01155779 600.046875 148.3671875 C598.87705078 148.93912842 597.70722656 149.51106934 596.50195312 150.1003418 C595.25139806 150.69209739 594.00074529 151.28364656 592.75 151.875 C591.47771328 152.49159261 590.20623004 153.10984582 588.93554688 153.72973633 C586.43545127 154.94689763 583.93177326 156.15603007 581.42382812 157.35693359 C577.09842368 159.43265892 572.79525866 161.550291 568.5 163.6875 C567.87963867 163.98962402 567.25927734 164.29174805 566.62011719 164.60302734 C563.48473174 166.15106808 560.76305658 167.86797984 558 170 C558.49983398 170.89138672 558.49983398 170.89138672 559.00976562 171.80078125 C560.5241115 174.52448585 562.01207498 177.26177926 563.5 180 C564.28697266 181.40185547 564.28697266 181.40185547 565.08984375 182.83203125 C568.17263045 188.55720655 569.78071804 192.48428777 569 199 C567.24086879 203.16636339 565.16636339 205.24086879 561 207 C557.06643901 207.58245426 554.12109888 207.50613555 550.46484375 205.85546875 C547.40223196 203.55001613 546.2639622 201.36082562 544.5625 197.9375 C541.59652364 192.13563397 538.41759061 186.54576059 535 181 C534.10539063 181.44730469 533.21078125 181.89460937 532.2890625 182.35546875 C507.390625 194.8046875 507.390625 194.8046875 505.41772461 195.79101562 C504.04601257 196.47695362 502.67443235 197.16315528 501.30297852 197.84960938 C497.87555996 199.56471597 494.44628599 201.2758116 491.01171875 202.9765625 C484.12378406 206.39327114 477.2848962 209.88252286 470.5 213.5 C461.75560989 218.16221301 452.90161682 222.58494244 444.02050781 226.97949219 C436.4758779 230.71648236 428.98302183 234.52153257 421.5625 238.5 C415.98884014 241.4848223 410.36552867 244.28823066 404.625 246.9375 C397.6339181 250.16490096 390.82105432 253.66627411 384.02490234 257.28442383 C378.96868478 259.97380228 373.88343751 262.58630013 368.75 265.125 C363.61834529 267.66510876 358.54101364 270.28444021 353.5 273 C346.42260552 276.80968903 339.25342456 280.41537441 332.05126953 283.98242188 C328.5297238 285.72936339 325.01528214 287.49049856 321.5 289.25 C320.23961536 289.88027238 318.97919976 290.51048286 317.71875 291.140625 C317.11063477 291.44468262 316.50251953 291.74874023 315.87597656 292.06201172 C310.33398437 294.83300781 304.79199219 297.60400391 299.25 300.375 C298.64567139 300.67752686 298.04134277 300.98005371 297.41870117 301.29174805 C294.64795521 302.67839385 291.87561212 304.06144058 289.09765625 305.43359375 C282.84714321 308.52816753 276.66616955 311.74165098 270.5 315 C263.37893844 318.76293642 256.22371011 322.43721906 249 326 C241.0017906 329.95194545 233.0679911 333.98468133 225.21508789 338.21679688 C221.88354065 340.00965287 218.53512632 341.73692146 215.125 343.375 C211.93188689 344.64686988 211.93188689 344.64686988 211 347 C211.71841064 347.3717334 212.43682129 347.7434668 213.17700195 348.12646484 C229.2271904 356.43380379 245.25523779 364.7800508 261.2265625 373.23828125 C268.73941337 377.21070009 276.26972172 381.14598941 283.83203125 385.0234375 C286.70059081 386.4946553 289.56911711 387.96593778 292.4375 389.4375 C293.15696808 389.80657471 293.87643616 390.17564941 294.6177063 390.5559082 C303.98042812 395.36323358 313.2666511 400.27511475 322.4609375 405.39916992 C327.67635853 408.29791956 332.94702364 411.03175947 338.29980469 413.66674805 C345.35034789 417.14615824 352.3309875 420.75976631 359.3125 424.375 C360.26221176 424.86672195 360.26221176 424.86672195 361.23110962 425.36837769 C371.1039396 430.48240123 380.95627387 435.63440717 390.78613281 440.83056641 C395.49023441 443.31541937 400.19968016 445.79013997 404.90820312 448.26660156 C408.69369685 450.25807361 412.47788257 452.25189149 416.2578125 454.25390625 C426.6755152 459.76465163 437.14424765 465.17298553 447.625 470.5625 C468.68555737 481.39360182 468.68555737 481.39360182 477.79296875 486.28125 C479.80735006 487.36082098 481.8297783 488.42564344 483.86328125 489.46875 C488.15830519 491.71558868 491.68038397 493.56247368 494 498 C494.84341435 502.78526665 494.46244648 506.09162299 492.25 510.4375 C489.07469552 514.05381899 487.51120687 514.82562998 482.75 515.375 C477.45713877 514.84571388 473.64222474 512.58976625 469.13671875 509.87890625 C461.85578136 505.76359381 454.37851816 505.9370373 446.1804657 506.04631042 C431.57712664 506.23445981 417.24191603 505.32580103 402.70703125 503.98828125 C400.32411697 503.77669547 397.94111894 503.56605098 395.55804443 503.35627747 C390.55143981 502.9137627 385.54542777 502.46524648 380.53982544 502.01153564 C372.73761753 501.30436502 364.93425707 500.6105788 357.13061523 499.91943359 C349.40845043 499.23507029 341.68632603 498.55030566 333.96461487 497.86083984 C315.50259674 496.21313496 297.03630061 494.63436581 278.5625 493.125 C261.82289814 491.75090444 245.09287517 490.30350066 228.36837769 488.7565918 C212.46134396 487.28752904 196.5453612 485.94121066 180.625 484.625 C158.15249701 482.76694322 135.6831238 480.87604882 113.21630096 478.95055389 C110.89123144 478.75139037 108.56613396 478.55255643 106.24102783 478.3538208 C102.57283094 478.04023894 98.90470155 477.72587908 95.23662567 477.41088486 C93.2489519 477.24031871 91.26122612 477.07035898 89.27349854 476.90042114 C85.8485089 476.6055883 82.42425649 476.30320338 79 476 C78.01646545 475.91882935 77.03293091 475.83765869 76.01959229 475.75402832 C74.68562408 475.63650208 74.68562408 475.63650208 73.32470703 475.51660156 C72.56368683 475.45232971 71.80266663 475.38805786 71.01858521 475.32183838 C67.46344775 474.7550158 65.58309604 473.46009147 63 471 C59.03723111 464.79073185 57.60119194 457.22495602 55.83203125 450.16015625 C55.14868348 447.12674691 55.14868348 447.12674691 54 445 C52.6078125 445.0928125 52.6078125 445.0928125 51.1875 445.1875 C48 445 48 445 46.4375 443.9375 C44.34182918 441.1129002 43.71272875 438.19611839 42.8125 434.8125 C42.46832031 433.54019531 42.12414062 432.26789063 41.76953125 430.95703125 C41.51558594 429.98121094 41.26164062 429.00539063 41 428 C32.37628025 432.00055816 23.77313716 436.04331621 15.1875 440.125 C14.32938721 440.53218262 13.47127441 440.93936523 12.5871582 441.35888672 C7.39803738 443.82970694 2.26207526 446.37861572 -2.83496094 449.03491211 C-5.70959816 450.3163105 -7.90558057 450.52831551 -11 450 C-14.35939992 447.76040006 -15.16572775 446.21751873 -17 442.6875 C-18.48653665 439.84991833 -19.95387462 437.07308598 -21.6640625 434.36328125 C-23.52946273 431.06337734 -23.39994947 428.73286172 -23 425 C-18.8386826 413.62573245 2.9358883 406.12721961 13.0234375 400.828125 C14.02737549 400.29525879 15.03131348 399.76239258 16.06567383 399.21337891 C18.03861516 398.16767982 20.01753389 397.13316904 22.00268555 396.11083984 C22.90027588 395.63340332 23.79786621 395.1559668 24.72265625 394.6640625 C25.92547241 394.03685303 25.92547241 394.03685303 27.15258789 393.39697266 C29.14076528 392.13911302 29.14076528 392.13911302 29.82592773 389.99755859 C30.15273012 387.85190825 30.15273012 387.85190825 29.0625 385.375 C27.66782576 380.94485829 27.43536759 376.61670033 28 372 C28.66 371.34 29.32 370.68 30 370 C31.32 370 32.64 370 34 370 C26.70946097 342.44542189 26.70946097 342.44542189 18.99755859 315.00732422 C17.21246131 308.84686158 15.59425447 302.6498243 14 296.4375 C11.94040713 288.41465952 9.68359011 280.4822487 7.25219727 272.56494141 C5.01982057 265.22759626 3.09234496 257.82390808 1.19067383 250.39501953 C-0.54274152 243.6552987 -2.41394032 236.97135631 -4.43969727 230.3137207 C-8.61018345 216.53794634 -8.61018345 216.53794634 -5.87109375 210.51953125 C-3.53697131 207.37650625 -1.24421959 206.06329609 2.1875 204.1875 C2.80262451 203.84912109 3.41774902 203.51074219 4.05151367 203.16210938 C16.76535512 196.23979138 29.88052431 190.10510255 43 184 C41.0956551 177.47204292 39.02659003 171.03209557 36.75 164.625 C36.1235694 162.85030578 35.49727073 161.07556498 34.87109375 159.30078125 C34.55640137 158.41084473 34.24170898 157.5209082 33.91748047 156.60400391 C33.07438446 154.21111886 32.23989494 151.81551251 31.41015625 149.41796875 C27.16001679 137.15436784 22.7306032 124.95842189 18.26293945 112.77270508 C15.72054422 105.82501919 13.26014947 98.86098884 10.94946289 91.83203125 C9.00685744 86.03768225 6.85330319 80.31829103 4.73632812 74.5859375 C4.39666016 73.66039063 4.05699219 72.73484375 3.70703125 71.78125 C3.4025708 70.95689453 3.09811035 70.13253906 2.78442383 69.28320312 C2.0689898 67.20080692 1.51905247 65.13767778 1 63 C0.44733963 62.87107361 -0.10532074 62.74214722 -0.67472839 62.60931396 C-6.43748307 61.26219861 -12.19560526 59.89649499 -17.95141602 58.52001953 C-20.09872574 58.0090716 -22.24716332 57.50283927 -24.39672852 57.00146484 C-27.49024682 56.27904785 -30.57928303 55.53964625 -33.66796875 54.796875 C-34.62648239 54.57690857 -35.58499603 54.35694214 -36.57255554 54.13031006 C-41.54457171 52.91608669 -45.37945604 51.8567986 -49 48 C-49.67927401 44.37720527 -49.46942769 42.74326051 -47.5 39.625 C-43.08755661 36.7569118 -38.10917404 37.78819226 -33.15429688 38.734375 C-31.83999394 39.06326092 -30.52815563 39.40212782 -29.21875 39.75 C-28.51979614 39.92756836 -27.82084229 40.10513672 -27.10070801 40.28808594 C-24.89807288 40.84982021 -22.69911055 41.42464008 -20.5 42 C-18.99501611 42.38629216 -17.48980928 42.77171683 -15.984375 43.15625 C-12.3202659 44.09416962 -8.65938684 45.04382943 -5 46 C-5.40951904 44.92556641 -5.81903809 43.85113281 -6.2409668 42.74414062 C-8.86817408 35.83921134 -11.4512656 28.91675134 -13.875 21.9375 C-14.28492188 20.77089844 -14.69484375 19.60429688 -15.1171875 18.40234375 C-16.33563348 13.70647452 -16.78385482 9.72448061 -14.75 5.25 C-10.67437446 0.00991001 -6.5637632 -1.34886396 0 0 Z M94.76171875 189.60546875 C93.82483215 190.01867622 93.82483215 190.01867622 92.86901855 190.44023132 C91.51564354 191.03787636 90.16337841 191.63803966 88.81210327 192.24041748 C86.66568197 193.19722581 84.51652879 194.14762149 82.36645508 195.09619141 C80.13843995 196.07923867 77.91060852 197.06268051 75.68363953 198.0480957 C68.82787871 201.08158944 61.95612974 204.07735664 55.07666016 207.05664062 C53.19906378 207.86999072 51.32216706 208.68493983 49.4453125 209.5 C43.95792375 211.87786846 38.46458833 214.23528353 32.9375 216.51953125 C32.03878174 216.89158691 31.14006348 217.26364258 30.21411133 217.64697266 C28.58375193 218.31839905 26.95092835 218.98388727 25.31518555 219.64208984 C21.45969358 220.98814498 21.45969358 220.98814498 19 224 C19.48803017 226.25504879 20.07067572 228.48984601 20.6953125 230.7109375 C21.07481373 232.080329 21.45403855 233.44979713 21.83300781 234.81933594 C22.02866333 235.51748413 22.22431885 236.21563232 22.42590332 236.93493652 C23.29054038 240.04509283 24.10900356 243.16706172 24.9296875 246.2890625 C28.18031805 258.55813024 31.46853005 270.81039121 34.99169922 283.00463867 C36.71756054 288.98237316 38.352394 294.97929554 39.9375 300.99609375 C41.26003772 306.0059803 42.63272688 311.00217678 44 316 C45.69105679 322.18135672 47.36740666 328.36544779 49 334.5625 C50.45508484 340.04115952 51.99202429 345.49123331 53.5625 350.9375 C60.77396292 375.99411638 67.56549413 401.17616878 74.24609375 426.37890625 C74.52952637 427.44512207 74.81295898 428.51133789 75.10498047 429.60986328 C75.75724623 432.08050222 76.40159241 434.55253507 77.03955078 437.02685547 C77.39225024 438.38118551 77.74495201 439.73551495 78.09765625 441.08984375 C78.57150757 442.92663696 78.57150757 442.92663696 79.05493164 444.80053711 C80.16158442 448.58029653 80.16158442 448.58029653 82 452 C83.93489437 452.73506707 83.93489437 452.73506707 86.24780273 452.83374023 C87.58729225 452.95954468 87.58729225 452.95954468 88.95384216 453.08789062 C89.93716019 453.16072266 90.92047821 453.23355469 91.93359375 453.30859375 C92.96730606 453.40019775 94.00101837 453.49180176 95.0660553 453.58618164 C98.52191934 453.88792496 101.97940651 454.16258204 105.4375 454.4375 C107.88816525 454.64617868 110.33868454 454.85657794 112.7890625 455.06860352 C117.94040214 455.5109445 123.0925118 455.94186891 128.24560547 456.36328125 C135.58332641 456.963371 142.91881243 457.58745799 150.25390625 458.21875 C159.9770168 459.05323335 169.70100626 459.8765542 179.42578125 460.69140625 C195.12079286 462.00720486 210.81400153 463.34356194 226.50656891 464.6881485 C228.69046807 464.87525429 230.8743779 465.06223522 233.05828857 465.24920654 C254.68934286 467.10168945 276.31732658 468.98803608 297.94426346 470.88793087 C323.83679005 473.16244246 349.72973157 475.43140109 375.63079834 477.60690308 C378.2240192 477.82495391 380.81716098 478.04394746 383.41021729 478.26394653 C386.94120255 478.5630876 390.47248846 478.85835862 394.00390625 479.15234375 C395.53699684 479.2830275 395.53699684 479.2830275 397.10105896 479.41635132 C402.08805454 479.82656871 406.99617922 480.09424782 412 480 C408.41507727 477.03253183 404.47170722 475.1404063 400.3125 473.125 C395.21491538 470.64244195 390.21938112 468.04304095 385.2746582 465.26757812 C381.52793855 463.17967768 377.73403569 461.18297729 373.9375 459.1875 C373.10951904 458.75155518 372.28153809 458.31561035 371.4284668 457.86645508 C366.42110651 455.24007612 361.38538288 452.68443921 356.3125 450.1875 C348.22936891 446.20409779 340.3282705 441.89074177 332.4230957 437.56713867 C327.63144516 434.9493714 322.83317995 432.37954634 317.93554688 429.96582031 C314.25479113 428.12915662 310.63335038 426.17823865 307 424.25 C300.27599027 420.69317261 293.52310369 417.21001892 286.69140625 413.86425781 C282.01183237 411.55775012 277.44274346 409.07089223 272.86914062 406.56152344 C268.27806532 404.06284086 263.6391502 401.65789398 259 399.25 C256.97381677 398.19558448 254.94777717 397.14089293 252.921875 396.0859375 C251.92349609 395.56612305 250.92511719 395.04630859 249.89648438 394.51074219 C245.67552429 392.30918276 241.46185941 390.09390924 237.25 387.875 C236.48453857 387.47200684 235.71907715 387.06901367 234.93041992 386.65380859 C231.00464709 384.586127 227.08123922 382.51406149 223.16015625 380.4375 C216.36956437 376.84605263 209.58251265 373.26144112 202.69213867 369.86425781 C199.45039589 368.26450848 196.22443859 366.6342703 193 365 C192.36658691 364.68353516 191.73317383 364.36707031 191.08056641 364.04101562 C169.32577955 353.04372271 163.22104799 331.43412265 154.73901367 309.92114258 C150.46781173 299.09327173 145.99858204 288.35654912 141.45214844 277.64160156 C139.05612727 271.97703728 136.70930839 266.30787815 134.5234375 260.55859375 C131.71414689 253.17178224 128.64342108 245.90112212 125.5625 238.625 C122.01187477 230.23128436 118.51073156 221.82490821 115.14634705 213.35462952 C112.90068379 207.7154552 110.53516968 202.13294318 108.125 196.5625 C107.52171875 195.16161133 107.52171875 195.16161133 106.90625 193.73242188 C105.93922055 191.48753208 104.97048567 189.24339723 104 187 C100.30130618 187 98.14606399 188.1019298 94.76171875 189.60546875 Z " fill="#000000" transform="translate(78,31)"/>
</svg>
